<svg id="Layer_1" data-name="Layer 1" xmlns="http://www.w3.org/2000/svg" viewBox="0 0 716.76 184.87"><defs><style>.cls-1{fill:#00676d;}.cls-2{fill:#0099b0;}</style></defs><path class="cls-1" d="M775,174.89c-4.31-3.15-9.14-5.16-14.07-7.11a112.62,112.62,0,0,0-34.47-7.62c-21.26-1.5-41.41.55-60.58,9.09l45.34-78.46a10.76,10.76,0,0,1,18.63,0l12.87,22.27H736a2.32,2.32,0,0,0-1.82.88,2.18,2.18,0,0,0-.92,1.86v37.37a2.39,2.39,0,0,0,2.08,3.52h31.58a2.45,2.45,0,0,0,.93-.18l12.79,22.12C778.7,177.41,776.79,176.22,775,174.89Z" transform="translate(-100.68 -76.55)"/><path class="cls-1" d="M724.78,169.71a102.07,102.07,0,0,1,31.36,6.52c4.64,1.8,9.27,3.63,13.35,6.55s8.64,5.14,12.09,8.54a4.54,4.54,0,0,0,6.44.14l28,48.41A10.75,10.75,0,0,1,806.67,256H762.14a10.73,10.73,0,0,1-9.31-5.37L732.25,215,731,213.25c-1.4-2.08-1.82-2.79-2.69-4-.46-.65-1.14-1.59-2-2.7A68.62,68.62,0,0,0,693.53,184c-6.41-2-11.49-2.5-18.55-3.18-3.59-.35-6.85-.53-9.71-.6C684.06,170.58,703.73,168.4,724.78,169.71Z" transform="translate(-100.68 -76.55)"/><path class="cls-1" d="M626.05,239.87,654.29,191c.57-.16,1.4-.39,2.41-.63a64.09,64.09,0,0,1,12.61-1.48,69.87,69.87,0,0,1,23.18,4.2c4.48,1.75,11.19,4.46,17.52,10.85a42.49,42.49,0,0,1,4.19,4.93c-.8,1.19-1.65,2.4-2.53,3.63-.63.86-1.26,1.7-1.88,2.52l-20.58,35.61A10.74,10.74,0,0,1,679.9,256H635.37A10.75,10.75,0,0,1,626.05,239.87Z" transform="translate(-100.68 -76.55)"/><path class="cls-2" d="M659.2,180.8h13.56A68.54,68.54,0,0,1,731,213.25a14,14,0,0,1,1.21,1.76l20.58,35.62a10.79,10.79,0,0,0,9.32,5.37h44.53A10.75,10.75,0,0,0,816,239.86l-15.42-26.69-17.17-29.7-.13-.07-2-1.22A120.67,120.67,0,0,0,659.2,180.8Z" transform="translate(-100.68 -76.55)"/><path class="cls-2" d="M756.84,153.89c-5.55,0-11.11-.08-16.67,0-2.43,0-3.46-.67-3.44-3.28q.15-16.29,0-32.57c0-2.56.91-3.35,3.39-3.33q16.27.1,32.57,0c2.51,0,3.38.79,3.36,3.33,0,11.11.07,22.22.14,33.33,0,2.11-.75,2.84-3,2.75-5.42-.23-10.85-.08-16.28-.08Z" transform="translate(-100.68 -76.55)"/><path class="cls-2" d="M777.81,88.28c0,2.71-.12,5.42,0,8.12.14,2.41-.51,3.54-3.18,3.46-5.55-.16-11.1-.1-16.65,0-2.49,0-3.46-1-3.43-3.48.08-5.55.09-11.1,0-16.65,0-2.29.77-3.2,3.15-3.15q8.5.2,17,0c2.44-.06,3.17.93,3.06,3.2C777.7,82.59,777.8,85.44,777.81,88.28Z" transform="translate(-100.68 -76.55)"/><path class="cls-2" d="M789.65,151c0-1.93,0-3.87,0-5.8,0-5.73,0-6,5.47-5.61,4.9.31,9.79.23,14.69.21,2.33,0,3.19.79,3.14,3.14-.11,5.68-.09,11.36,0,17,0,2-.44,3.07-2.77,3-5.93-.13-11.87-.12-17.8,0-2.32,0-2.83-1-2.75-3.07.12-3,0-5.93,0-8.9Z" transform="translate(-100.68 -76.55)"/><path class="cls-2" d="M798.76,117.45c0-7,0-7,6.86-7,7.3,0,7.34,0,7.29,7.38-.06,7.78,1,6.68-6.74,6.77h-.39C798.76,124.62,798.76,124.62,798.76,117.45Z" transform="translate(-100.68 -76.55)"/><path class="cls-2" d="M811.27,86.35c0,5.36,0,5.4-5.87,5.35-5.56,0-4.69.82-5.12-6.14-.25-4.08,1.15-5,5-4.81C812.09,81.13,811.17,80.11,811.27,86.35Z" transform="translate(-100.68 -76.55)"/><path d="M316.71,129.67c-5.8.06-11.6,0-17.79,0V229.87h21.56V204.38q0-34.33,0-68.67C320.45,133,321.26,129.63,316.71,129.67Z" transform="translate(-100.68 -76.55)"/><path d="M340.69,87.05a73,73,0,0,0-18.78-2.83c-17.47-.14-36.25,6.17-47.36,20.24-7.3,9.24-11,21-9.25,32.74H286c-1.23,0-.11-14.45.21-15.84,4.45-19.26,25.44-25.15,42.62-27a96,96,0,0,1,19.58.14c9.36,1.3,15,3.92,15.23,3.27C364,96.83,353.62,90.57,340.69,87.05Z" transform="translate(-100.68 -76.55)"/><path d="M265.37,153.1v.27h.08c0,16.15.16,31.5-.1,46.86-.08,4.86-3.56,7.46-8.27,7.31-4.47-.14-7.11-3-7.46-7.5-.23-3-.1-6.07-.11-9.1,0-8.56,0-17.12,0-25.53H227.32c0,11,0,21.61,0,32.19,0,5-3.76,9.92-9.14,9.74-6.16-.21-7.15-6-7.3-11-.18-6.14-.9-29.74-.11-30.11H188.47c.08,6.53,1.12,34.82,1.57,42H162.57s-.85-27.06-.85-37.15h-22.4c0,7.7.13,28.93-.11,31.69-.35,4.13-3,6.73-7.53,6.86-4.75.14-8.26-2.24-8.34-6.69-.09-4.61-.32-24.59-.55-45.93h-.06c-.06-24.12-.12-48.26-.18-71.26H100.68c0,26.68,0,53.5,0,79.42h0c0,19,0,33.83.06,35.8.25,23.43,24.25,35.93,47.05,24.78,1.34-.66,125.94-.56,125.94-.56,8.26-5.24,13.84-14.78,14-27.1.14-15,.1-30,0-45Z" transform="translate(-100.68 -76.55)"/><path d="M139.12,242.34a9.53,9.53,0,0,0-8.73,5.7,9.54,9.54,0,1,0,0,7.68,9.54,9.54,0,1,0,8.73-13.38Z" transform="translate(-100.68 -76.55)"/><path d="M562.27,153.09l.19.28c0,16.15.16,31.5-.09,46.86-.08,4.86-3.56,7.46-8.27,7.31-4.48-.14-7.11-3-7.47-7.5-.23-3-.11-26.22-.11-34.63H524.33c0,11,0,21.61,0,32.2,0,5.41-2.16,9.4-8,10-4.92.49-8.38-3.74-8.51-10-.1-4.92,0-31.32,0-31.32H485.48v.08h-2.05s.06,26.4,0,31.31c-.13,6.3-3.59,10.53-8.51,10-1.4-.14-101.22-.14-102.61,0-4.93.48-8.39-3.75-8.52-10-.1-4.91,0-31.31,0-31.31H341.43s.08,29.46.18,33.23c.48,18.65,15.42,31.11,31.89,30.28h0c8.79,0,96.66.19,97.84-.21a30.29,30.29,0,0,0,24.3-7.69c9.25,8.44,23.48,10.82,36.33,3.59,1.64-.93,4.57-1.21,6.14-.36,22.59,12.19,46.37-1.48,46.62-27.08.15-15,.1-30,0-45Z" transform="translate(-100.68 -76.55)"/><circle cx="569.9" cy="251.88" r="9.54" transform="translate(-143.31 61.13) rotate(-13.28)"/><path d="M528.14,242.34a9.51,9.51,0,0,0-8.72,5.7,9.54,9.54,0,1,0,0,7.68,9.53,9.53,0,1,0,8.72-13.38Z" transform="translate(-100.68 -76.55)"/><path d="M414.08,184.23a9.53,9.53,0,0,0,8.73-5.7,9.54,9.54,0,1,0,0-7.68,9.54,9.54,0,1,0-8.73,13.38Z" transform="translate(-100.68 -76.55)"/></svg>