<?xml version="1.0" encoding="UTF-8"?>
<svg id="Layer_1" data-name="Layer 1" xmlns="http://www.w3.org/2000/svg" viewBox="0 0 192.86 179.46">
  <defs>
    <style>
      .cls-1 {
        fill: #0099b0;
      }

      .cls-1, .cls-2 {
        stroke-width: 0px;
      }

      .cls-2 {
        fill: #00676d;
      }
    </style>
  </defs>
  <g>
    <path class="cls-2" d="m150.4,98.35c-4.31-3.15-9.14-5.17-14.07-7.11-11.36-4.48-22.29-6.76-34.47-7.62-21.26-1.5-41.42.55-60.58,9.09L86.62,14.24c4.14-7.16,14.49-7.16,18.63,0l12.87,22.27c-.06,0-.11-.02-.17-.02h-6.58c-.75,0-1.39.35-1.82.88-.54.38-.92,1-.92,1.86v37.36c-.66,1.43.04,3.53,2.09,3.53h31.57c.35,0,.66-.07.94-.18l12.78,22.12c-1.89-1.21-3.8-2.41-5.61-3.73Z"/>
    <path class="cls-2" d="m100.18,93.16c11.01.68,21.05,2.54,31.36,6.52,4.65,1.8,9.27,3.63,13.36,6.55,3.94,2.82,8.64,5.14,12.08,8.55,2.09,2.07,4.72,1.63,6.44.14l27.97,48.4c4.15,7.18-1.03,16.14-9.31,16.14h-44.53c-3.84,0-7.39-2.05-9.31-5.38l-20.58-35.61c-.28-.4-.7-1.02-1.22-1.78-1.4-2.07-1.82-2.78-2.69-4.01-.46-.65-1.15-1.59-2.04-2.7-2.18-2.73-5.34-6.25-9.62-9.83-9.69-8.08-19.21-11.47-23.15-12.69-6.41-2-11.5-2.5-18.55-3.19-3.59-.35-6.85-.52-9.71-.59,18.79-9.66,38.46-11.84,59.51-10.53Z"/>
    <path class="cls-2" d="m1.46,163.32l28.24-48.86c.58-.16,1.41-.39,2.41-.63.33-.08,6.1-1.42,12.61-1.48,12.19-.12,23.19,4.19,23.19,4.19,4.47,1.75,11.19,4.47,17.51,10.85,1.88,1.9,3.27,3.66,4.19,4.93-.8,1.19-1.65,2.4-2.53,3.62-.63.87-1.25,1.71-1.88,2.53l-20.58,35.61c-1.93,3.33-5.47,5.38-9.31,5.38H10.78c-8.29,0-13.46-8.96-9.31-16.14Z"/>
  </g>
  <path class="cls-1" d="m34.61,104.25h13.56c23.77,0,45.81,12.31,58.27,32.45.44.55.84,1.13,1.21,1.77l20.58,35.62c1.93,3.32,5.48,5.38,9.32,5.38h44.54c8.28,0,13.45-8.97,9.31-16.14l-15.43-26.7-17.16-29.69-.13-.08-2.04-1.22c-37.43-22.5-84.1-23.03-122.02-1.38Z"/>
  <path class="cls-1" d="m132.25,77.34c-5.56,0-11.12-.08-16.67.04-2.43.05-3.46-.67-3.44-3.28.1-10.86.08-21.71-.03-32.57-.03-2.56.91-3.35,3.39-3.33,10.86.08,21.72.07,32.57-.05,2.51-.03,3.37.79,3.36,3.33-.05,11.11.06,22.22.14,33.33.01,2.11-.75,2.84-3.04,2.75-5.42-.23-10.85-.07-16.28-.07,0-.05,0-.1,0-.15Z"/>
  <path class="cls-1" d="m153.21,11.73c0,2.71-.12,5.43.04,8.13.14,2.4-.51,3.53-3.18,3.46-5.54-.16-11.1-.1-16.64-.03-2.49.03-3.46-1.03-3.43-3.49.08-5.55.08-11.1,0-16.64-.04-2.29.77-3.21,3.15-3.15,5.67.13,11.36.14,17.03.01,2.44-.06,3.17.92,3.06,3.2-.13,2.83-.03,5.68-.03,8.51Z"/>
  <path class="cls-1" d="m165.06,74.4c0-1.94.01-3.87,0-5.81-.04-5.73-.02-5.96,5.47-5.61,4.9.31,9.8.24,14.69.21,2.33-.01,3.19.79,3.15,3.14-.12,5.67-.09,11.35,0,17.03.03,2.04-.44,3.07-2.77,3.02-5.93-.13-11.87-.12-17.8-.02-2.32.04-2.82-1.03-2.75-3.07.12-2.96.03-5.93.03-8.9h-.01Z"/>
  <path class="cls-1" d="m174.17,40.9q0-6.97,6.86-6.96c7.31,0,7.34,0,7.29,7.38-.06,7.78.96,6.68-6.74,6.77-.13,0-.26,0-.39,0q-7.03-.01-7.02-7.19Z"/>
  <path class="cls-1" d="m186.68,9.81c0,5.36,0,5.4-5.88,5.34-5.56-.05-4.69.83-5.11-6.14-.25-4.08,1.15-5.02,4.95-4.81,6.86.38,5.93-.64,6.03,5.61Z"/>
</svg>